<svg width="145" height="38" viewBox="0 0 145 38" fill="none" xmlns="http://www.w3.org/2000/svg">
<mask id="path-1-inside-1_679_11124" fill="white">
<path d="M5.84685 19.7675C5.45466 19.3786 5.45466 18.7482 5.84685 18.3593L7.71341 16.5087C10.0666 14.1756 13.8818 14.1756 16.235 16.5087L18.1015 18.3593C18.4937 18.7482 18.4937 19.3786 18.1015 19.7675L16.235 21.6181C13.8818 23.9512 10.0666 23.9512 7.71341 21.6181L5.84685 19.7675Z"/>
</mask>
<path d="M5.84685 19.7675C5.45466 19.3786 5.45466 18.7482 5.84685 18.3593L7.71341 16.5087C10.0666 14.1756 13.8818 14.1756 16.235 16.5087L18.1015 18.3593C18.4937 18.7482 18.4937 19.3786 18.1015 19.7675L16.235 21.6181C13.8818 23.9512 10.0666 23.9512 7.71341 21.6181L5.84685 19.7675Z" stroke="#C69B7B" stroke-width="5" mask="url(#path-1-inside-1_679_11124)"/>
<mask id="path-2-inside-2_679_11124" fill="white">
<path d="M21.9347 19.7675C21.5425 19.3786 21.5425 18.7482 21.9347 18.3593L23.8013 16.5087C26.1545 14.1756 29.9697 14.1756 32.3229 16.5087L34.1894 18.3593C34.5816 18.7482 34.5816 19.3786 34.1894 19.7675L32.3229 21.6181C29.9697 23.9512 26.1545 23.9512 23.8013 21.6181L21.9347 19.7675Z"/>
</mask>
<path d="M21.9347 19.7675C21.5425 19.3786 21.5425 18.7482 21.9347 18.3593L23.8013 16.5087C26.1545 14.1756 29.9697 14.1756 32.3229 16.5087L34.1894 18.3593C34.5816 18.7482 34.5816 19.3786 34.1894 19.7675L32.3229 21.6181C29.9697 23.9512 26.1545 23.9512 23.8013 21.6181L21.9347 19.7675Z" stroke="#C69B7B" stroke-width="5" mask="url(#path-2-inside-2_679_11124)"/>
<mask id="path-3-inside-3_679_11124" fill="white">
<path d="M19.3084 5.01315C19.7006 4.6243 20.3365 4.6243 20.7287 5.01315L22.5952 6.86378C24.9484 9.19687 24.9484 12.9795 22.5952 15.3126L20.7287 17.1633C20.3365 17.5521 19.7006 17.5521 19.3084 17.1633L17.4419 15.3126C15.0887 12.9795 15.0887 9.19687 17.4419 6.86378L19.3084 5.01315Z"/>
</mask>
<path d="M19.3084 5.01315C19.7006 4.6243 20.3365 4.6243 20.7287 5.01315L22.5952 6.86378C24.9484 9.19687 24.9484 12.9795 22.5952 15.3126L20.7287 17.1633C20.3365 17.5521 19.7006 17.5521 19.3084 17.1633L17.4419 15.3126C15.0887 12.9795 15.0887 9.19687 17.4419 6.86378L19.3084 5.01315Z" stroke="#C69B7B" stroke-width="5" mask="url(#path-3-inside-3_679_11124)"/>
<mask id="path-4-inside-4_679_11124" fill="white">
<path d="M19.202 20.1717C19.5942 19.7829 20.23 19.7829 20.6222 20.1717L22.4888 22.0224C24.842 24.3554 24.842 28.1381 22.4888 30.4712L20.6222 32.3218C20.23 32.7107 19.5942 32.7107 19.202 32.3218L17.3354 30.4712C14.9823 28.1381 14.9823 24.3554 17.3354 22.0224L19.202 20.1717Z"/>
</mask>
<path d="M19.202 20.1717C19.5942 19.7829 20.23 19.7829 20.6222 20.1717L22.4888 22.0224C24.842 24.3554 24.842 28.1381 22.4888 30.4712L20.6222 32.3218C20.23 32.7107 19.5942 32.7107 19.202 32.3218L17.3354 30.4712C14.9823 28.1381 14.9823 24.3554 17.3354 22.0224L19.202 20.1717Z" stroke="#C69B7B" stroke-width="5" mask="url(#path-4-inside-4_679_11124)"/>
<path d="M39.0527 19C39.0527 19.6095 38.7907 20.1675 38.2986 20.9374C38.2269 21.0495 38.1475 21.1696 38.0632 21.297C37.6325 21.9481 37.0764 22.7888 36.791 23.7235C36.4981 24.6826 36.394 25.7531 36.3058 26.66C36.2821 26.9041 36.2595 27.1363 36.2347 27.3513C36.1055 28.4713 35.9157 29.2774 35.4727 29.8787C35.0322 30.4766 34.31 30.908 33.2755 31.3784C33.0796 31.4675 32.8673 31.5597 32.6448 31.6563C31.8065 32.0203 30.8217 32.448 30.0128 33.0133C29.2045 33.5783 28.6067 34.372 28.1574 34.9686C28.083 35.0673 28.0127 35.1607 27.9461 35.2467C27.4179 35.9298 27.0332 36.3116 26.5304 36.4887C25.7231 36.773 24.8353 36.7917 23.7491 36.7023C23.4472 36.6774 23.1144 36.6417 22.7624 36.6039C21.9465 36.5163 21.0275 36.4177 20.1514 36.4177C19.2752 36.4177 18.3562 36.5163 17.5403 36.6039C17.1883 36.6417 16.8555 36.6774 16.5536 36.7023C15.4675 36.7917 14.5796 36.773 13.7723 36.4887C13.04 36.2308 12.4412 35.7707 11.7727 35.1409C11.6108 34.9883 11.4366 34.8167 11.2516 34.6345C10.7322 34.1227 10.128 33.5275 9.47405 33.0375C8.8242 32.5506 8.05389 32.1246 7.37942 31.7515C7.15444 31.6271 6.94011 31.5085 6.74449 31.3956C5.88702 30.9006 5.24894 30.4473 4.83007 29.8787C4.34912 29.226 4.08068 28.3594 3.85903 27.2497C3.80101 26.9591 3.74477 26.6395 3.6858 26.3043C3.53926 25.4715 3.37577 24.5423 3.12569 23.7235C2.87136 22.8907 2.45196 22.1181 2.11219 21.4922C2.0239 21.3295 1.94098 21.1768 1.86774 21.0355C1.48136 20.29 1.25 19.6878 1.25 19C1.25 18.3473 1.54609 17.6154 2.05326 16.6669C2.14382 16.4976 2.24416 16.3168 2.34929 16.1274C2.76415 15.3799 3.25363 14.4979 3.51174 13.6528C3.79793 12.7157 3.90449 11.7615 3.99185 10.9794C4.01665 10.7573 4.0399 10.5491 4.06527 10.3591C4.18796 9.44031 4.36546 8.75188 4.83007 8.12127C5.23499 7.57167 5.85119 7.15837 6.7086 6.70028C6.88024 6.60857 7.06716 6.5127 7.2638 6.41185C7.96118 6.05418 8.78073 5.63385 9.47405 5.11439C10.1653 4.5965 10.7924 3.94662 11.3265 3.39309C11.4928 3.2208 11.6501 3.05783 11.7974 2.91109C12.4737 2.23771 13.0634 1.76101 13.7723 1.51131C14.5796 1.22697 15.4675 1.20828 16.5536 1.2977C16.8555 1.32256 17.1884 1.35828 17.5404 1.39607C18.3563 1.48364 19.2752 1.58229 20.1514 1.58229C21.0275 1.58229 21.9465 1.48364 22.7623 1.39607C23.1144 1.35828 23.4472 1.32256 23.7491 1.2977C24.8353 1.20828 25.7231 1.22697 26.5304 1.51131C27.0092 1.67996 27.3893 2.07081 27.9271 2.8039C27.9904 2.89018 28.0572 2.98361 28.1278 3.08235C28.5787 3.71278 29.1841 4.55938 30.0128 5.13858C30.8576 5.72904 31.9398 6.16613 32.8379 6.5289C33.0476 6.6136 33.2473 6.69425 33.4315 6.77185C34.5677 7.25032 35.166 7.6237 35.409 8.02602C35.7593 8.6061 35.9438 9.34142 36.1166 10.3406C36.1483 10.5239 36.1797 10.7175 36.2125 10.9191C36.3469 11.7474 36.5033 12.7109 36.791 13.6528C37.0491 14.4979 37.5386 15.3799 37.9534 16.1274C38.0586 16.3168 38.1589 16.4976 38.2495 16.6669C38.7566 17.6154 39.0527 18.3473 39.0527 19Z" stroke="#C69B7B" stroke-width="2.5"/>
<path d="M72.2268 8.82733C72.3447 8.82733 72.4578 8.88283 72.5415 8.98178C72.6252 9.08072 72.6728 9.2151 72.6738 9.35566V28.4714C72.6738 28.612 72.6273 28.7468 72.5443 28.8467C72.4614 28.9465 72.3487 29.0033 72.2309 29.0045H70.0484C69.9305 29.0033 69.8179 28.9465 69.7349 28.8467C69.652 28.7468 69.6054 28.612 69.6054 28.4714V16.0366C69.4336 16.2031 69.2564 16.3632 69.0739 16.5169C68.5544 16.9491 68.0269 17.3141 67.5155 17.6696C67.0041 18.025 66.6659 18.3036 66.2632 18.5869C65.5093 19.1063 64.853 19.8048 64.3348 20.6393C63.8167 21.4738 63.4479 22.4263 63.2512 23.4379C63.2291 23.5556 63.174 23.6608 63.0948 23.7359C63.0157 23.8111 62.9174 23.8517 62.8163 23.851H60.7345C60.6333 23.8517 60.535 23.8111 60.4559 23.7359C60.3768 23.6608 60.3216 23.5556 60.2996 23.4379C60.1029 22.4251 59.7337 21.4713 59.2149 20.636C58.696 19.8006 58.0386 19.1015 57.2835 18.5821C56.8809 18.2987 56.4782 17.9866 56.0312 17.6648C55.5842 17.343 54.9923 16.9443 54.4729 16.5121C54.2903 16.3616 54.1131 16.2015 53.9413 16.0318V28.4714C53.9413 28.612 53.8948 28.7468 53.8118 28.8467C53.7289 28.9465 53.6162 29.0033 53.4984 29.0045H51.3199C51.2021 29.0033 51.0894 28.9465 51.0064 28.8467C50.9235 28.7468 50.8769 28.612 50.877 28.4714V9.36046C50.877 9.21907 50.924 9.08346 51.0079 8.98348C51.0917 8.8835 51.2054 8.82733 51.3239 8.82733H53.4782C53.5832 8.82906 53.6842 8.87476 53.7637 8.95642C53.8432 9.03808 53.8961 9.15051 53.9131 9.27401C54.0339 10.2058 54.493 12.3815 56.1721 13.5967C56.6151 13.9089 57.054 14.2595 57.5372 14.6005C58.0204 14.9415 58.4916 15.2537 58.9506 15.6379C59.888 16.3813 60.7269 17.2879 61.4391 18.3276C61.4795 18.3885 61.5309 18.4378 61.5894 18.4717C61.648 18.5055 61.7123 18.5231 61.7774 18.5231C61.8425 18.5231 61.9068 18.5055 61.9653 18.4717C62.0239 18.4378 62.0753 18.3885 62.1156 18.3276C62.8264 17.2865 63.6639 16.3783 64.6002 15.6331C65.0793 15.2489 65.5787 14.9031 66.0176 14.5957C66.4565 14.2883 66.9478 13.9089 67.3786 13.5967C69.0618 12.4007 69.5209 10.2346 69.6417 9.27401C69.6587 9.15051 69.7116 9.03808 69.7911 8.95642C69.8706 8.87476 69.9716 8.82906 70.0766 8.82733H72.2268Z" fill="#C69B7B"/>
<path d="M95.4618 18.9161C95.4618 24.4744 91.0189 29.0047 85.5541 29.0047C80.0894 29.0047 75.6465 24.4793 75.6465 18.9161C75.6465 13.353 80.0894 8.82751 85.5541 8.82751C91.0189 8.82751 95.4618 13.353 95.4618 18.9161ZM85.5541 12.493C81.8102 12.493 78.7651 15.3755 78.7651 18.9161C78.7651 22.4567 81.8102 25.3152 85.5541 25.3152C89.2981 25.3152 92.3473 22.4327 92.3473 18.8969C92.3473 15.3611 89.2981 12.493 85.5541 12.493Z" fill="#C69B7B"/>
<path d="M118.249 18.9161C118.249 24.4744 113.584 29.0047 107.846 29.0047C102.108 29.0047 97.4434 24.4793 97.4434 18.9161C97.4434 13.353 102.108 8.82751 107.846 8.82751C113.584 8.82751 118.249 13.353 118.249 18.9161ZM107.846 12.493C103.915 12.493 100.714 15.3755 100.714 18.9161C100.714 22.4567 103.915 25.3152 107.846 25.3152C111.778 25.3152 114.975 22.4327 114.975 18.8969C114.975 15.3611 111.765 12.493 107.846 12.493Z" fill="#C69B7B"/>
<path d="M135.979 18.7672V9.35596C135.979 9.28657 135.99 9.21785 136.013 9.15374C136.035 9.08962 136.068 9.03136 136.109 8.98229C136.15 8.93322 136.199 8.8943 136.253 8.86774C136.307 8.84118 136.365 8.82751 136.423 8.82751H138.611C138.67 8.82751 138.727 8.84118 138.781 8.86774C138.835 8.8943 138.884 8.93322 138.925 8.98229C138.967 9.03136 138.999 9.08962 139.022 9.15374C139.044 9.21785 139.055 9.28657 139.055 9.35596V28.4763C139.055 28.5457 139.044 28.6144 139.022 28.6785C138.999 28.7426 138.967 28.8009 138.925 28.8499C138.884 28.899 138.835 28.9379 138.781 28.9645C138.727 28.991 138.67 29.0047 138.611 29.0047H136.443C136.385 29.0047 136.327 28.991 136.273 28.9645C136.219 28.9379 136.17 28.899 136.129 28.8499C136.088 28.8009 136.055 28.7426 136.033 28.6785C136.011 28.6144 135.999 28.5457 135.999 28.4763V26.9726C136.001 26.5019 135.913 26.0368 135.741 25.613C135.099 24.0661 133.439 21.2029 129.563 19.4494C127.926 18.7294 126.392 17.7116 125.017 16.4324C124.952 16.3692 124.873 16.3294 124.79 16.3177C124.707 16.306 124.622 16.3228 124.547 16.3662C124.471 16.4096 124.408 16.4778 124.364 16.5627C124.32 16.6476 124.297 16.7458 124.298 16.8455V28.4763C124.298 28.6164 124.251 28.7508 124.168 28.8499C124.085 28.949 123.972 29.0047 123.854 29.0047H121.666C121.548 29.0047 121.435 28.949 121.352 28.8499C121.268 28.7508 121.222 28.6164 121.222 28.4763V9.35596C121.222 9.21581 121.268 9.0814 121.352 8.98229C121.435 8.88319 121.548 8.82751 121.666 8.82751H123.794C123.882 8.82961 123.968 8.86325 124.04 8.92408C124.112 8.98491 124.167 9.07011 124.197 9.1686C124.549 10.3024 126.01 13.9727 130.633 16.0192C132.306 16.7472 133.862 17.8116 135.232 19.1659C135.296 19.2322 135.375 19.2751 135.459 19.2895C135.544 19.3039 135.63 19.2892 135.707 19.2472C135.784 19.2052 135.85 19.1376 135.896 19.0526C135.942 18.9675 135.967 18.8684 135.967 18.7672H135.979Z" fill="#C69B7B"/>
<path d="M142.027 26.9871C142.027 26.5878 142.115 26.1975 142.278 25.8656C142.442 25.5337 142.674 25.275 142.946 25.1225C143.217 24.9699 143.516 24.9302 143.805 25.0085C144.093 25.0867 144.358 25.2794 144.566 25.5621C144.773 25.8448 144.915 26.2047 144.972 26.5965C145.028 26.9882 144.999 27.394 144.885 27.7626C144.772 28.1312 144.581 28.446 144.337 28.6671C144.092 28.8883 143.804 29.0058 143.51 29.0048C143.315 29.0048 143.122 28.9526 142.942 28.8511C142.762 28.7496 142.598 28.6009 142.46 28.4135C142.323 28.2261 142.213 28.0036 142.139 27.7588C142.065 27.5141 142.027 27.2518 142.027 26.9871Z" fill="#C69B7B"/>
</svg>
