<svg width="183" height="49" viewBox="0 0 183 49" fill="none" xmlns="http://www.w3.org/2000/svg">
<mask id="path-1-inside-1_679_11078" fill="white">
<path d="M7.19225 25.1559C6.80022 24.7669 6.80022 24.1362 7.19225 23.7472L10.8528 20.1147C13.205 17.7806 17.0186 17.7806 19.3707 20.1147L23.0313 23.7472C23.4234 24.1362 23.4234 24.7669 23.0313 25.1559L19.3707 28.7884C17.0186 31.1225 13.205 31.1225 10.8528 28.7884L7.19225 25.1559Z"/>
</mask>
<path d="M7.19225 25.1559C6.80022 24.7669 6.80022 24.1362 7.19225 23.7472L10.8528 20.1147C13.205 17.7806 17.0186 17.7806 19.3707 20.1147L23.0313 23.7472C23.4234 24.1362 23.4234 24.7669 23.0313 25.1559L19.3707 28.7884C17.0186 31.1225 13.205 31.1225 10.8528 28.7884L7.19225 25.1559Z" stroke="#3A3845" stroke-width="5" mask="url(#path-1-inside-1_679_11078)"/>
<mask id="path-2-inside-2_679_11078" fill="white">
<path d="M27.4969 25.1559C27.1049 24.7669 27.1049 24.1362 27.4969 23.7472L31.1575 20.1147C33.5097 17.7806 37.3233 17.7806 39.6754 20.1147L43.336 23.7472C43.728 24.1362 43.728 24.7669 43.336 25.1559L39.6754 28.7884C37.3233 31.1225 33.5097 31.1225 31.1575 28.7884L27.4969 25.1559Z"/>
</mask>
<path d="M27.4969 25.1559C27.1049 24.7669 27.1049 24.1362 27.4969 23.7472L31.1575 20.1147C33.5097 17.7806 37.3233 17.7806 39.6754 20.1147L43.336 23.7472C43.728 24.1362 43.728 24.7669 43.336 25.1559L39.6754 28.7884C37.3233 31.1225 33.5097 31.1225 31.1575 28.7884L27.4969 25.1559Z" stroke="#3A3845" stroke-width="5" mask="url(#path-2-inside-2_679_11078)"/>
<mask id="path-3-inside-3_679_11078" fill="white">
<path d="M24.5538 6.51895C24.9459 6.12993 25.5815 6.12994 25.9735 6.51895L29.6341 10.1514C31.9862 12.4855 31.9862 16.2698 29.6341 18.6039L25.9735 22.2364C25.5815 22.6254 24.9459 22.6254 24.5538 22.2364L20.8933 18.6039C18.5411 16.2698 18.5411 12.4855 20.8933 10.1514L24.5538 6.51895Z"/>
</mask>
<path d="M24.5538 6.51895C24.9459 6.12993 25.5815 6.12994 25.9735 6.51895L29.6341 10.1514C31.9862 12.4855 31.9862 16.2698 29.6341 18.6039L25.9735 22.2364C25.5815 22.6254 24.9459 22.6254 24.5538 22.2364L20.8933 18.6039C18.5411 16.2698 18.5411 12.4855 20.8933 10.1514L24.5538 6.51895Z" stroke="#3A3845" stroke-width="5" mask="url(#path-3-inside-3_679_11078)"/>
<mask id="path-4-inside-4_679_11078" fill="white">
<path d="M24.421 25.6667C24.8131 25.2776 25.4487 25.2776 25.8407 25.6667L29.5013 29.2991C31.8534 31.6332 31.8534 35.4175 29.5013 37.7516L25.8407 41.3841C25.4487 41.7731 24.8131 41.7731 24.421 41.3841L20.7605 37.7516C18.4083 35.4175 18.4083 31.6332 20.7605 29.2991L24.421 25.6667Z"/>
</mask>
<path d="M24.421 25.6667C24.8131 25.2776 25.4487 25.2776 25.8407 25.6667L29.5013 29.2991C31.8534 31.6332 31.8534 35.4175 29.5013 37.7516L25.8407 41.3841C25.4487 41.7731 24.8131 41.7731 24.421 41.3841L20.7605 37.7516C18.4083 35.4175 18.4083 31.6332 20.7605 29.2991L24.421 25.6667Z" stroke="#3A3845" stroke-width="5" mask="url(#path-4-inside-4_679_11078)"/>
<path d="M49.6148 24.3715C49.6148 25.2425 49.237 26.0165 48.6112 26.9963C48.516 27.1453 48.4124 27.3023 48.3038 27.4669C47.7595 28.2914 47.0908 29.3044 46.746 30.4343C46.3871 31.6105 46.26 32.9162 46.1487 34.0592C46.1181 34.3732 46.0887 34.6749 46.0561 34.9583C45.8924 36.3793 45.6466 37.4741 45.0324 38.3085C44.4223 39.1373 43.4411 39.7108 42.1312 40.307C41.8734 40.4243 41.598 40.544 41.312 40.6684C40.2563 41.1275 39.0563 41.6494 38.0655 42.3424C37.0923 43.0232 36.3735 43.9772 35.8037 44.7333C35.708 44.8603 35.6166 44.9817 35.5288 45.0953C34.8584 45.9629 34.3231 46.515 33.5917 46.7728C32.5065 47.1554 31.3298 47.1741 29.9462 47.0601C29.5492 47.0274 29.1195 46.9812 28.6696 46.9328C27.6473 46.8229 26.5202 46.7017 25.4324 46.7017C24.3446 46.7017 23.2175 46.8229 22.1952 46.9328C21.7453 46.9812 21.3156 47.0274 20.9186 47.0601C19.535 47.1741 18.3583 47.1554 17.2731 46.7728C16.2841 46.4242 15.4883 45.8056 14.6337 44.9997C14.4192 44.7975 14.1927 44.5742 13.9551 44.3398C13.3032 43.6971 12.5668 42.971 11.7609 42.3666C10.9607 41.7666 10.0199 41.2457 9.17281 40.7767C8.8841 40.6169 8.60628 40.4631 8.34864 40.3142C7.25977 39.6851 6.40369 39.0846 5.83245 38.3085C5.18033 37.4227 4.83068 36.2674 4.54917 34.8567C4.47282 34.4741 4.40013 34.0606 4.32467 33.6312C4.14106 32.5865 3.94099 31.4481 3.63163 30.4343C3.32151 29.418 2.81437 28.4824 2.38649 27.693C2.27248 27.4826 2.1641 27.2827 2.06657 27.0943C1.57181 26.1389 1.25 25.3208 1.25 24.3715C1.25 23.4572 1.66188 22.4683 2.30268 21.2689C2.42238 21.0449 2.55294 20.8093 2.68829 20.5651C3.21075 19.6223 3.80445 18.5511 4.11884 17.5208C4.47003 16.3699 4.59987 15.2081 4.71001 14.2227C4.74201 13.9364 4.77235 13.6649 4.80596 13.413C4.96324 12.2342 5.19665 11.2981 5.83245 10.4344C6.38974 9.67732 7.22394 9.12685 8.31273 8.54462C8.53901 8.42363 8.78176 8.29897 9.03454 8.16916C9.91213 7.71851 10.9107 7.20573 11.7609 6.56818C12.6098 5.93159 13.3735 5.13963 14.045 4.44334C14.2589 4.22153 14.4635 4.00943 14.6584 3.81515C15.5208 2.95571 16.3075 2.31051 17.2731 1.97011C18.3583 1.58753 19.535 1.56882 20.9186 1.68282C21.3157 1.71553 21.7453 1.76173 22.1953 1.8101C23.2175 1.92001 24.3446 2.04119 25.4324 2.04119C26.5202 2.04119 27.6473 1.92001 28.6696 1.8101C29.1195 1.76173 29.5492 1.71553 29.9462 1.68282C31.3298 1.56882 32.5065 1.58753 33.5917 1.97011C34.2991 2.21949 34.8298 2.79059 35.5097 3.71824C35.5931 3.83198 35.6799 3.9533 35.7706 4.08004C36.343 4.87988 37.0702 5.89616 38.0655 6.59239C39.0976 7.3144 40.4165 7.84797 41.5494 8.30633C41.8188 8.41532 42.0777 8.52006 42.3197 8.62207C43.742 9.22157 44.5994 9.72704 44.9688 10.3391C45.4455 11.1292 45.6858 12.1121 45.9044 13.377C45.9455 13.6147 45.9858 13.8635 46.0276 14.1211C46.1973 15.1662 46.3902 16.3548 46.746 17.5208C47.0604 18.551 47.6541 19.6223 48.1765 20.565C48.3119 20.8093 48.4424 21.0449 48.5621 21.2689C49.2029 22.4683 49.6148 23.4572 49.6148 24.3715Z" stroke="#3A3845" stroke-width="2.5"/>
<path d="M91.156 11.522C91.3047 11.522 91.4474 11.5921 91.5531 11.7171C91.6587 11.842 91.7187 12.0118 91.7201 12.1893V36.3355C91.7201 36.5131 91.6614 36.6835 91.5567 36.8096C91.452 36.9357 91.3098 37.0074 91.1611 37.009H88.4066C88.2579 37.0074 88.1157 36.9357 88.011 36.8096C87.9063 36.6835 87.8476 36.5131 87.8476 36.3355V20.6284C87.6307 20.8387 87.4071 21.0409 87.1767 21.2351C86.5211 21.7811 85.8554 22.2422 85.21 22.6911C84.5646 23.1401 84.1377 23.4919 83.6295 23.8499C82.678 24.5059 81.8496 25.3883 81.1957 26.4424C80.5418 27.4964 80.0763 28.6997 79.8281 29.9774C79.8002 30.1261 79.7306 30.259 79.6308 30.3539C79.5309 30.4488 79.4069 30.5001 79.2792 30.4992H76.6518C76.5242 30.5001 76.4001 30.4488 76.3003 30.3539C76.2004 30.259 76.1308 30.1261 76.1029 29.9774C75.8548 28.6981 75.3888 27.4933 74.734 26.4381C74.0791 25.3829 73.2494 24.4999 72.2965 23.8438C71.7883 23.4859 71.2801 23.0915 70.716 22.685C70.1519 22.2786 69.4048 21.775 68.7492 21.229C68.5188 21.0389 68.2952 20.8367 68.0784 20.6223V36.3355C68.0784 36.5131 68.0197 36.6835 67.915 36.8096C67.8103 36.9357 67.6681 37.0074 67.5194 37.009H64.77C64.6212 37.0074 64.4791 36.9357 64.3744 36.8096C64.2697 36.6835 64.2109 36.5131 64.2109 36.3355V12.1954C64.2109 12.0168 64.2704 11.8455 64.3762 11.7192C64.482 11.5929 64.6254 11.522 64.775 11.522H67.4939C67.6264 11.5242 67.7539 11.5819 67.8542 11.685C67.9546 11.7882 68.0213 11.9302 68.0428 12.0862C68.1953 13.2632 68.7746 16.0115 70.8938 17.5464C71.4529 17.9407 72.0068 18.3836 72.6166 18.8144C73.2265 19.2451 73.8211 19.6395 74.4005 20.1248C75.5836 21.0638 76.6422 22.209 77.5412 23.5223C77.5921 23.5993 77.6569 23.6615 77.7308 23.7043C77.8048 23.7471 77.8859 23.7693 77.9681 23.7693C78.0502 23.7693 78.1313 23.7471 78.2053 23.7043C78.2792 23.6615 78.344 23.5993 78.3949 23.5223C79.292 22.2073 80.3489 21.06 81.5306 20.1187C82.1353 19.6334 82.7655 19.1966 83.3195 18.8083C83.8734 18.42 84.4934 17.9407 85.0372 17.5464C87.1615 16.0357 87.7408 13.2996 87.8933 12.0862C87.9148 11.9302 87.9815 11.7882 88.0819 11.685C88.1822 11.5819 88.3097 11.5242 88.4422 11.522H91.156Z" fill="#3A3845"/>
<path d="M120.48 24.2656C120.48 31.2866 114.873 37.0091 107.976 37.0091C101.079 37.0091 95.4717 31.2927 95.4717 24.2656C95.4717 17.2385 101.079 11.5221 107.976 11.5221C114.873 11.5221 120.48 17.2385 120.48 24.2656ZM107.976 16.1522C103.251 16.1522 99.4076 19.7932 99.4076 24.2656C99.4076 28.7379 103.251 32.3486 107.976 32.3486C112.701 32.3486 116.549 28.7076 116.549 24.2413C116.549 19.775 112.701 16.1522 107.976 16.1522Z" fill="#3A3845"/>
<path d="M149.239 24.2656C149.239 31.2866 143.352 37.0091 136.11 37.0091C128.868 37.0091 122.98 31.2927 122.98 24.2656C122.98 17.2385 128.868 11.5221 136.11 11.5221C143.352 11.5221 149.239 17.2385 149.239 24.2656ZM136.11 16.1522C131.148 16.1522 127.108 19.7932 127.108 24.2656C127.108 28.7379 131.148 32.3486 136.11 32.3486C141.071 32.3486 145.106 28.7076 145.106 24.2413C145.106 19.775 141.055 16.1522 136.11 16.1522Z" fill="#3A3845"/>
<path d="M171.615 24.0775V12.1896C171.615 12.102 171.629 12.0151 171.658 11.9342C171.686 11.8532 171.727 11.7796 171.779 11.7176C171.831 11.6556 171.893 11.6065 171.961 11.5729C172.029 11.5394 172.102 11.5221 172.175 11.5221H174.937C175.011 11.5221 175.084 11.5394 175.152 11.5729C175.22 11.6065 175.281 11.6556 175.334 11.7176C175.386 11.7796 175.427 11.8532 175.455 11.9342C175.483 12.0151 175.498 12.102 175.498 12.1896V36.3416C175.498 36.4292 175.483 36.516 175.455 36.597C175.427 36.678 175.386 36.7516 175.334 36.8136C175.281 36.8756 175.22 36.9247 175.152 36.9583C175.084 36.9918 175.011 37.0091 174.937 37.0091H172.201C172.127 37.0091 172.054 36.9918 171.986 36.9583C171.918 36.9247 171.857 36.8756 171.804 36.8136C171.752 36.7516 171.711 36.678 171.683 36.597C171.655 36.516 171.64 36.4292 171.64 36.3416V34.4422C171.643 33.8476 171.532 33.2601 171.314 32.7248C170.504 30.7708 168.41 27.1541 163.518 24.9392C161.451 24.0297 159.516 22.7441 157.78 21.1283C157.698 21.0485 157.599 20.9982 157.494 20.9834C157.389 20.9686 157.282 20.9898 157.187 21.0447C157.092 21.0995 157.011 21.1856 156.956 21.2929C156.9 21.4002 156.872 21.5241 156.873 21.6501V36.3416C156.873 36.5186 156.814 36.6884 156.709 36.8136C156.604 36.9388 156.461 37.0091 156.313 37.0091H153.551C153.402 37.0091 153.26 36.9388 153.154 36.8136C153.049 36.6884 152.99 36.5186 152.99 36.3416V12.1896C152.99 12.0126 153.049 11.8428 153.154 11.7176C153.26 11.5924 153.402 11.5221 153.551 11.5221H156.236C156.348 11.5247 156.456 11.5672 156.547 11.6441C156.638 11.7209 156.707 11.8285 156.746 11.9529C157.189 13.3851 159.034 18.0213 164.868 20.6064C166.98 21.5259 168.943 22.8704 170.672 24.5811C170.753 24.6648 170.853 24.719 170.959 24.7372C171.065 24.7554 171.174 24.7369 171.272 24.6838C171.369 24.6308 171.452 24.5454 171.51 24.4379C171.568 24.3304 171.599 24.2053 171.6 24.0775H171.615Z" fill="#3A3845"/>
<path d="M179.249 34.4604C179.249 33.9561 179.359 33.4631 179.565 33.0438C179.772 32.6245 180.065 32.2979 180.408 32.1052C180.751 31.9124 181.128 31.8623 181.492 31.9612C181.856 32.06 182.19 32.3034 182.453 32.6604C182.715 33.0175 182.893 33.4722 182.965 33.967C183.037 34.4618 182.999 34.9745 182.856 35.4401C182.714 35.9057 182.472 36.3033 182.163 36.5826C181.854 36.8619 181.491 37.0104 181.12 37.0091C180.874 37.0091 180.63 36.9432 180.403 36.815C180.176 36.6868 179.969 36.499 179.795 36.2623C179.622 36.0255 179.484 35.7445 179.39 35.4353C179.296 35.1261 179.248 34.7948 179.249 34.4604Z" fill="#3A3845"/>
</svg>
