<svg width="24" height="23" viewBox="0 0 24 23" fill="none" xmlns="http://www.w3.org/2000/svg">
<path d="M5.98115 5.44937H22.2698L19.9509 15.3048C19.6497 16.5844 18.508 17.4887 17.1934 17.4887H11.3486C10.0632 17.4887 8.93898 16.6233 8.61008 15.3808L5.98115 5.44937ZM5.98115 5.44937L4.91884 1.2002H1.73193" stroke="#3A3845" stroke-width="1.5" stroke-linecap="round" stroke-linejoin="round"/>
<path d="M9.16933 22.8001C9.95159 22.8001 10.5857 22.1659 10.5857 21.3837C10.5857 20.6014 9.95159 19.9673 9.16933 19.9673C8.38708 19.9673 7.75293 20.6014 7.75293 21.3837C7.75293 22.1659 8.38708 22.8001 9.16933 22.8001Z" fill="#3A3845"/>
<path d="M19.0849 22.8001C19.8671 22.8001 20.5013 22.1659 20.5013 21.3837C20.5013 20.6014 19.8671 19.9673 19.0849 19.9673C18.3026 19.9673 17.6685 20.6014 17.6685 21.3837C17.6685 22.1659 18.3026 22.8001 19.0849 22.8001Z" fill="#3A3845"/>
</svg>
